<svg id="Layer_1" data-name="Layer 1" xmlns="http://www.w3.org/2000/svg" xmlns:xlink="http://www.w3.org/1999/xlink" viewBox="0 0 41 28"><defs><style>.cls-1,.cls-6,.cls-8{fill:#ed1c24;}.cls-1,.cls-2{clip-rule:evenodd;}.cls-10,.cls-12,.cls-2{fill:#9c0a0e;}.cls-3{fill:#fff;}.cls-4{fill:red;}.cls-5{fill:#ea1f27;}.cls-10,.cls-17,.cls-5,.cls-6{fill-rule:evenodd;}.cls-7{clip-path:url(#clip-path);}.cls-9{clip-path:url(#clip-path-2);}.cls-11{clip-path:url(#clip-path-3);}.cls-13{clip-path:url(#clip-path-4);}.cls-14{clip-path:url(#clip-path-5);}.cls-15{clip-path:url(#clip-path-6);}.cls-16{clip-path:url(#clip-path-7);}.cls-17{fill:#600;}</style><clipPath id="clip-path" transform="translate(0 0)"><path id="SVGID" class="cls-1" d="M20.68,16.55l-.07,2.62L13.9,20.33c-3.13.54-5.84.48-6.83-1.42-.66-1.27-.81-3.46.23-6.05,1.29-3.21,4.17-4.8,7.21-5.33l6.54-.87L21,8.36,16.18,9a7.62,7.62,0,0,0-2.56.7c-2,1-2.65,3.19-2.88,5.28s.64,2.68,2.65,2.66c1.59-.08,3-.43,4.61-.64Z"/></clipPath><clipPath id="clip-path-2" transform="translate(0 0)"><path id="SVGID-2" data-name="SVGID" class="cls-1" d="M21.77,8.24l0-1.65,6.84-.85a11.6,11.6,0,0,1,1.86-.1c1.42.08,2.93,1.1,2.81,2.68A3.7,3.7,0,0,1,32,10.55a3.57,3.57,0,0,1,1.62.93c1.9,1.89.63,4.69-1.75,5.42-.5.15-1,.31-1.47.42l-8.79,1.6,0-2.57,7-1.13a4.21,4.21,0,0,0,1.6-.57A1.4,1.4,0,0,0,30.74,13c-.25-.76-.93-1-1.77-1-.24,0-.51,0-.8.07L23,12.82v-2l4.9-.66c.8-.13,1.9-.27,2.12-1.23S29.57,7.6,28.77,7.5a5.55,5.55,0,0,0-1.41,0Z"/></clipPath><clipPath id="clip-path-3" transform="translate(0 0)"><path id="SVGID-3" data-name="SVGID" class="cls-2" d="M20.39,20.87c-2.53.49-5.05,1.05-7.61,1.38a8.61,8.61,0,0,1-2.43.05c-2.76-.42-3.88-2-3.85-5.06l0-1.08h0a5.65,5.65,0,0,0,.52,2.75c1,1.89,3.7,2,6.83,1.42l6.71-1.15Z"/></clipPath><clipPath id="clip-path-4" transform="translate(0 0)"><path id="SVGID-4" data-name="SVGID" class="cls-2" d="M21,8.36l-.12,1.77c-1.91.25-3.86.46-5.75.82A4.63,4.63,0,0,0,14,11.3c-2,.92-2.71,3-3,5l0,.32a3.15,3.15,0,0,1-.14-1.6c.23-2.09.92-4.24,2.88-5.28A7.62,7.62,0,0,1,16.18,9Z"/></clipPath><clipPath id="clip-path-5" transform="translate(0 0)"><path id="SVGID-5" data-name="SVGID" class="cls-2" d="M21.76,8.24,21.51,10l5.23-.65c.51,0,2.37-.33,2.59.4A1.23,1.23,0,0,0,30,8.91c.21-.91-.43-1.31-1.23-1.41a5.55,5.55,0,0,0-1.41,0l-5.59.7h0Z"/></clipPath><clipPath id="clip-path-6" transform="translate(0 0)"><path id="SVGID-6" data-name="SVGID" class="cls-2" d="M22.69,14.58l5-.73c.87-.14,2.28-.19,2.5.82A1.39,1.39,0,0,0,30.74,13c-.25-.76-.93-1-1.77-1-.24,0-.51,0-.8.07L23,12.82Z"/></clipPath><clipPath id="clip-path-7" transform="translate(0 0)"><path id="SVGID-7" data-name="SVGID" class="cls-2" d="M21.57,18.92l-.24,1.69,8.54-1.55a4.94,4.94,0,0,0,3.81-2.62,7.26,7.26,0,0,0,.81-2.66l0,.27a3.72,3.72,0,0,1-2.63,2.85c-.5.15-1,.31-1.47.42Z"/></clipPath></defs><rect class="cls-3" x="1" y="1" width="39" height="26" rx="1"/><path class="cls-4" d="M39,2V26H2V2H39m0-2H2A2,2,0,0,0,0,2V26a2,2,0,0,0,2,2H39a2,2,0,0,0,2-2V2a2,2,0,0,0-2-2Z" transform="translate(0 0)"/><polygon class="cls-5" points="21.74 8.53 21.77 8.24 21.8 6.6 28.09 6.93 30.12 7.44 31.14 8.33 30.71 9.2 29.93 9.95 29.28 9.97 29.46 9.22 28.82 8.29 24.22 8.16 22.73 8.32 21.74 8.53"/><polygon class="cls-5" points="21.62 18.41 21.59 18.91 21.58 19.59 33.11 17.13 34.28 14.81 34.47 14.07 34.4 13.92 32.77 15.89 27.16 17.22 23.15 18.21 21.62 18.41"/><polygon class="cls-5" points="20.62 18.31 20.61 19.2 20.36 20.4 12.45 21.68 8.81 21.42 7.46 20.25 6.67 18.73 6.56 17.55 7.17 16.97 11.61 18.75 17.59 18.64 20.62 18.31"/><polygon class="cls-5" points="20.98 7.95 20.96 8.41 20.82 8.99 12.18 11.82 10.91 15.76 10.84 17.04 10.54 16.91 9.1 15.46 11.96 9.81 16.13 8.26 19.54 7.91 20.98 7.95"/><path id="SVGID-8" data-name="SVGID" class="cls-6" d="M20.68,16.55l-.07,2.62L13.9,20.33c-3.13.54-5.84.48-6.83-1.42-.66-1.27-.81-3.46.23-6.05,1.29-3.21,4.17-4.8,7.21-5.33l6.54-.87L21,8.36,16.18,9a7.62,7.62,0,0,0-2.56.7c-2,1-2.65,3.19-2.88,5.28s.64,2.68,2.65,2.66c1.59-.08,3-.43,4.61-.64Z" transform="translate(0 0)"/><g class="cls-7"><rect class="cls-8" x="6.26" y="6.66" width="14.79" height="14.21"/></g><path class="cls-5" d="M23,12.81v-.29L26.45,12l2.05-.35h2l1.69,1.41-.74,1-.93.78-.46.24.12-.4.18-1.21-1.27-.53c-.06,0-2.53,0-2.53,0l-3.34.38L23,13Z" transform="translate(0 0)"/><path id="SVGID-9" data-name="SVGID" class="cls-6" d="M21.77,8.24l0-1.65,6.84-.85a11.6,11.6,0,0,1,1.86-.1c1.42.08,2.93,1.1,2.81,2.68A3.7,3.7,0,0,1,32,10.55a3.57,3.57,0,0,1,1.62.93c1.9,1.89.63,4.69-1.75,5.42-.5.15-1,.31-1.47.42l-8.79,1.6,0-2.57,7-1.13a4.21,4.21,0,0,0,1.6-.57A1.4,1.4,0,0,0,30.74,13c-.25-.76-.93-1-1.77-1-.24,0-.51,0-.8.07L23,12.82v-2l4.9-.66c.8-.13,1.9-.27,2.12-1.23S29.57,7.6,28.77,7.5a5.55,5.55,0,0,0-1.41,0Z" transform="translate(0 0)"/><g class="cls-9"><rect class="cls-8" x="21.57" y="5.6" width="13.91" height="13.32"/></g><path id="SVGID-10" data-name="SVGID" class="cls-10" d="M20.39,20.87c-2.53.49-5.05,1.05-7.61,1.38a8.61,8.61,0,0,1-2.43.05c-2.76-.42-3.88-2-3.85-5.06l0-1.08h0a5.65,5.65,0,0,0,.52,2.75c1,1.89,3.7,2,6.83,1.42l6.71-1.15Z" transform="translate(0 0)"/><g class="cls-11"><rect class="cls-12" x="6.47" y="16.16" width="14.14" height="6.28"/></g><path id="SVGID-11" data-name="SVGID" class="cls-10" d="M21,8.36l-.12,1.77c-1.91.25-3.86.46-5.75.82A4.63,4.63,0,0,0,14,11.3c-2,.92-2.71,3-3,5l0,.32a3.15,3.15,0,0,1-.14-1.6c.23-2.09.92-4.24,2.88-5.28A7.62,7.62,0,0,1,16.18,9Z" transform="translate(0 0)"/><g class="cls-13"><rect class="cls-12" x="10.66" y="8.36" width="10.31" height="8.25"/></g><path id="SVGID-12" data-name="SVGID" class="cls-10" d="M21.76,8.24,21.51,10l5.23-.65c.51,0,2.37-.33,2.59.4A1.23,1.23,0,0,0,30,8.91c.21-.91-.43-1.31-1.23-1.41a5.55,5.55,0,0,0-1.41,0l-5.59.7h0Z" transform="translate(0 0)"/><g class="cls-14"><rect class="cls-12" x="21.51" y="7.44" width="8.7" height="2.56"/></g><path id="SVGID-13" data-name="SVGID" class="cls-10" d="M22.69,14.58l5-.73c.87-.14,2.28-.19,2.5.82A1.39,1.39,0,0,0,30.74,13c-.25-.76-.93-1-1.77-1-.24,0-.51,0-.8.07L23,12.82Z" transform="translate(0 0)"/><g class="cls-15"><rect class="cls-12" x="22.69" y="11.98" width="8.33" height="2.69"/></g><path id="SVGID-14" data-name="SVGID" class="cls-10" d="M21.57,18.92l-.24,1.69,8.54-1.55a4.94,4.94,0,0,0,3.81-2.62,7.26,7.26,0,0,0,.81-2.66l0,.27a3.72,3.72,0,0,1-2.63,2.85c-.5.15-1,.31-1.47.42Z" transform="translate(0 0)"/><g class="cls-16"><rect class="cls-12" x="21.33" y="13.78" width="13.17" height="6.83"/></g><polygon class="cls-17" points="22.98 10.78 22.72 12.67 22.69 14.58 22.99 12.82 22.98 10.78"/><polygon class="cls-17" points="21.8 6.59 21.58 8.46 21.51 10 21.77 8.24 21.8 6.59"/><polygon class="cls-17" points="21.61 16.32 21.35 18.29 21.32 20.61 21.59 18.91 21.61 16.32"/></svg>